<mxfile host="app.diagrams.net" modified="2024-06-02T20:02:28.020Z" agent="Mozilla/5.0 (X11; Linux x86_64) AppleWebKit/537.36 (KHTML, like Gecko) Chrome/125.0.0.0 Safari/537.36" etag="A3AdDxa37a5Wq9A2LPYd" version="24.4.13" type="device">
  <diagram id="C5RBs43oDa-KdzZeNtuy" name="Page-1">
    <mxGraphModel dx="956" dy="1700" grid="1" gridSize="10" guides="1" tooltips="1" connect="1" arrows="1" fold="1" page="1" pageScale="1" pageWidth="827" pageHeight="1169" math="0" shadow="0">
      <root>
        <mxCell id="WIyWlLk6GJQsqaUBKTNV-0" />
        <mxCell id="WIyWlLk6GJQsqaUBKTNV-1" parent="WIyWlLk6GJQsqaUBKTNV-0" />
        <mxCell id="SRNSHd6ge_EsEEtdElFu-2" value="" style="edgeStyle=orthogonalEdgeStyle;rounded=0;orthogonalLoop=1;jettySize=auto;html=1;" parent="WIyWlLk6GJQsqaUBKTNV-1" source="S7_N-UKr1pL8a_zZHFVc-5" edge="1">
          <mxGeometry relative="1" as="geometry">
            <mxPoint x="410" y="-600" as="targetPoint" />
          </mxGeometry>
        </mxCell>
        <mxCell id="S7_N-UKr1pL8a_zZHFVc-5" value="Начало" style="strokeWidth=2;html=1;shape=mxgraph.flowchart.terminator;whiteSpace=wrap;" parent="WIyWlLk6GJQsqaUBKTNV-1" vertex="1">
          <mxGeometry x="360" y="-690" width="100" height="60" as="geometry" />
        </mxCell>
        <mxCell id="SRNSHd6ge_EsEEtdElFu-37" style="edgeStyle=orthogonalEdgeStyle;rounded=0;orthogonalLoop=1;jettySize=auto;html=1;entryX=0.5;entryY=0;entryDx=0;entryDy=0;" parent="WIyWlLk6GJQsqaUBKTNV-1" edge="1">
          <mxGeometry relative="1" as="geometry">
            <Array as="points">
              <mxPoint x="800" y="-390" />
              <mxPoint x="800" y="640" />
              <mxPoint x="410" y="640" />
            </Array>
            <mxPoint x="410" y="670" as="targetPoint" />
          </mxGeometry>
        </mxCell>
        <mxCell id="SRNSHd6ge_EsEEtdElFu-24" style="edgeStyle=orthogonalEdgeStyle;rounded=0;orthogonalLoop=1;jettySize=auto;html=1;entryX=0.5;entryY=0;entryDx=0;entryDy=0;" parent="WIyWlLk6GJQsqaUBKTNV-1" edge="1">
          <mxGeometry relative="1" as="geometry">
            <Array as="points">
              <mxPoint x="600" y="-30" />
              <mxPoint x="600" y="110" />
              <mxPoint x="410" y="110" />
            </Array>
            <mxPoint x="510" y="-30" as="sourcePoint" />
          </mxGeometry>
        </mxCell>
        <mxCell id="SRNSHd6ge_EsEEtdElFu-38" style="edgeStyle=orthogonalEdgeStyle;rounded=0;orthogonalLoop=1;jettySize=auto;html=1;entryX=0;entryY=0.5;entryDx=0;entryDy=0;entryPerimeter=0;exitX=0;exitY=0.5;exitDx=0;exitDy=0;" parent="WIyWlLk6GJQsqaUBKTNV-1" edge="1">
          <mxGeometry relative="1" as="geometry">
            <Array as="points">
              <mxPoint x="150" y="590" />
              <mxPoint x="150" y="-390" />
            </Array>
            <mxPoint x="310" y="-390" as="targetPoint" />
          </mxGeometry>
        </mxCell>
        <mxCell id="DR3ZvVdrjEOjAyI6lG6U-50" style="edgeStyle=orthogonalEdgeStyle;rounded=0;orthogonalLoop=1;jettySize=auto;html=1;entryX=0.5;entryY=0;entryDx=0;entryDy=0;entryPerimeter=0;" parent="WIyWlLk6GJQsqaUBKTNV-1" target="DR3ZvVdrjEOjAyI6lG6U-16" edge="1">
          <mxGeometry relative="1" as="geometry">
            <Array as="points">
              <mxPoint x="700" y="-355" />
              <mxPoint x="700" />
              <mxPoint x="410" />
            </Array>
            <mxPoint x="509.99999999999955" y="-354.9999999999998" as="sourcePoint" />
          </mxGeometry>
        </mxCell>
        <mxCell id="zlNJ5mJG9k1ZYK3fHJ0b-6" style="edgeStyle=orthogonalEdgeStyle;rounded=0;orthogonalLoop=1;jettySize=auto;html=1;entryX=0.5;entryY=0;entryDx=0;entryDy=0;" edge="1" parent="WIyWlLk6GJQsqaUBKTNV-1" source="zlNJ5mJG9k1ZYK3fHJ0b-4" target="zlNJ5mJG9k1ZYK3fHJ0b-5">
          <mxGeometry relative="1" as="geometry" />
        </mxCell>
        <mxCell id="zlNJ5mJG9k1ZYK3fHJ0b-4" value="code_table = {...}" style="rounded=1;whiteSpace=wrap;html=1;absoluteArcSize=1;arcSize=14;strokeWidth=2;strokeColor=default;align=center;verticalAlign=middle;fillColor=default;" vertex="1" parent="WIyWlLk6GJQsqaUBKTNV-1">
          <mxGeometry x="310" y="-600" width="200" height="40" as="geometry" />
        </mxCell>
        <mxCell id="zlNJ5mJG9k1ZYK3fHJ0b-24" style="edgeStyle=orthogonalEdgeStyle;rounded=0;orthogonalLoop=1;jettySize=auto;html=1;entryX=0.5;entryY=0;entryDx=0;entryDy=0;" edge="1" parent="WIyWlLk6GJQsqaUBKTNV-1" source="zlNJ5mJG9k1ZYK3fHJ0b-5" target="zlNJ5mJG9k1ZYK3fHJ0b-7">
          <mxGeometry relative="1" as="geometry" />
        </mxCell>
        <mxCell id="zlNJ5mJG9k1ZYK3fHJ0b-5" value="Ввод&amp;nbsp;sequence" style="shape=parallelogram;perimeter=parallelogramPerimeter;whiteSpace=wrap;html=1;fixedSize=1;rounded=1;strokeColor=default;strokeWidth=2;align=center;verticalAlign=middle;arcSize=14;fontFamily=Helvetica;fontSize=12;fontColor=default;fillColor=default;" vertex="1" parent="WIyWlLk6GJQsqaUBKTNV-1">
          <mxGeometry x="310" y="-540" width="200" height="50" as="geometry" />
        </mxCell>
        <mxCell id="zlNJ5mJG9k1ZYK3fHJ0b-25" style="edgeStyle=orthogonalEdgeStyle;rounded=0;orthogonalLoop=1;jettySize=auto;html=1;entryX=0.5;entryY=0;entryDx=0;entryDy=0;" edge="1" parent="WIyWlLk6GJQsqaUBKTNV-1" source="zlNJ5mJG9k1ZYK3fHJ0b-7" target="zlNJ5mJG9k1ZYK3fHJ0b-8">
          <mxGeometry relative="1" as="geometry" />
        </mxCell>
        <mxCell id="zlNJ5mJG9k1ZYK3fHJ0b-7" value="result[];&lt;div&gt;&lt;div&gt;uint32_t buffer = 0;&lt;/div&gt;&lt;div&gt;&lt;span style=&quot;background-color: initial;&quot;&gt;bit_count = 0;&lt;/span&gt;&lt;/div&gt;&lt;/div&gt;" style="rounded=1;whiteSpace=wrap;html=1;absoluteArcSize=1;arcSize=14;strokeWidth=2;strokeColor=default;align=center;verticalAlign=middle;fillColor=default;" vertex="1" parent="WIyWlLk6GJQsqaUBKTNV-1">
          <mxGeometry x="310" y="-470" width="200" height="60" as="geometry" />
        </mxCell>
        <mxCell id="zlNJ5mJG9k1ZYK3fHJ0b-8" value="index : sequence" style="shape=hexagon;perimeter=hexagonPerimeter2;whiteSpace=wrap;html=1;fixedSize=1;rounded=0;strokeColor=default;strokeWidth=2;align=center;verticalAlign=middle;arcSize=14;fontFamily=Helvetica;fontSize=12;fontColor=default;fillColor=default;" vertex="1" parent="WIyWlLk6GJQsqaUBKTNV-1">
          <mxGeometry x="310" y="-390" width="200" height="50" as="geometry" />
        </mxCell>
        <mxCell id="zlNJ5mJG9k1ZYK3fHJ0b-27" style="edgeStyle=orthogonalEdgeStyle;rounded=0;orthogonalLoop=1;jettySize=auto;html=1;entryX=0;entryY=0.5;entryDx=0;entryDy=0;" edge="1" parent="WIyWlLk6GJQsqaUBKTNV-1" source="zlNJ5mJG9k1ZYK3fHJ0b-11" target="zlNJ5mJG9k1ZYK3fHJ0b-14">
          <mxGeometry relative="1" as="geometry" />
        </mxCell>
        <mxCell id="zlNJ5mJG9k1ZYK3fHJ0b-30" value="Да" style="edgeLabel;html=1;align=center;verticalAlign=middle;resizable=0;points=[];" vertex="1" connectable="0" parent="zlNJ5mJG9k1ZYK3fHJ0b-27">
          <mxGeometry x="-0.5479" y="-2" relative="1" as="geometry">
            <mxPoint y="-17" as="offset" />
          </mxGeometry>
        </mxCell>
        <mxCell id="zlNJ5mJG9k1ZYK3fHJ0b-29" style="edgeStyle=orthogonalEdgeStyle;rounded=0;orthogonalLoop=1;jettySize=auto;html=1;entryX=0.5;entryY=0;entryDx=0;entryDy=0;" edge="1" parent="WIyWlLk6GJQsqaUBKTNV-1" source="zlNJ5mJG9k1ZYK3fHJ0b-11" target="zlNJ5mJG9k1ZYK3fHJ0b-15">
          <mxGeometry relative="1" as="geometry" />
        </mxCell>
        <mxCell id="zlNJ5mJG9k1ZYK3fHJ0b-31" value="Нет" style="edgeLabel;html=1;align=center;verticalAlign=middle;resizable=0;points=[];" vertex="1" connectable="0" parent="zlNJ5mJG9k1ZYK3fHJ0b-29">
          <mxGeometry x="-0.6036" relative="1" as="geometry">
            <mxPoint x="20" as="offset" />
          </mxGeometry>
        </mxCell>
        <UserObject label="&lt;div&gt;index не входит&lt;/div&gt;&lt;div&gt;в code_table?&lt;/div&gt;index &amp;lt; 0 || index &amp;gt;= code_table.size()" link="index &lt; 0 || index &gt;= code_table.size()" id="zlNJ5mJG9k1ZYK3fHJ0b-11">
          <mxCell style="strokeWidth=2;html=1;shape=mxgraph.flowchart.decision;whiteSpace=wrap;" vertex="1" parent="WIyWlLk6GJQsqaUBKTNV-1">
            <mxGeometry x="310" y="-320" width="200" height="90" as="geometry" />
          </mxCell>
        </UserObject>
        <mxCell id="zlNJ5mJG9k1ZYK3fHJ0b-12" value="Конец (возврат {}&lt;span style=&quot;background-color: initial;&quot;&gt;)&lt;/span&gt;" style="strokeWidth=2;html=1;shape=mxgraph.flowchart.terminator;whiteSpace=wrap;" vertex="1" parent="WIyWlLk6GJQsqaUBKTNV-1">
          <mxGeometry x="600" y="-240" width="100" height="60" as="geometry" />
        </mxCell>
        <mxCell id="zlNJ5mJG9k1ZYK3fHJ0b-14" value="Вывод ошибки" style="shape=parallelogram;perimeter=parallelogramPerimeter;whiteSpace=wrap;html=1;fixedSize=1;rounded=1;strokeColor=default;strokeWidth=2;align=center;verticalAlign=middle;arcSize=14;fontFamily=Helvetica;fontSize=12;fontColor=default;fillColor=default;" vertex="1" parent="WIyWlLk6GJQsqaUBKTNV-1">
          <mxGeometry x="550" y="-290" width="200" height="30" as="geometry" />
        </mxCell>
        <mxCell id="zlNJ5mJG9k1ZYK3fHJ0b-32" style="edgeStyle=orthogonalEdgeStyle;rounded=0;orthogonalLoop=1;jettySize=auto;html=1;entryX=0.5;entryY=0;entryDx=0;entryDy=0;" edge="1" parent="WIyWlLk6GJQsqaUBKTNV-1" source="zlNJ5mJG9k1ZYK3fHJ0b-15" target="zlNJ5mJG9k1ZYK3fHJ0b-16">
          <mxGeometry relative="1" as="geometry" />
        </mxCell>
        <mxCell id="zlNJ5mJG9k1ZYK3fHJ0b-15" value="code = code_table[index];" style="rounded=1;whiteSpace=wrap;html=1;absoluteArcSize=1;arcSize=14;strokeWidth=2;strokeColor=default;align=center;verticalAlign=middle;fillColor=default;" vertex="1" parent="WIyWlLk6GJQsqaUBKTNV-1">
          <mxGeometry x="310" y="-200" width="200" height="40" as="geometry" />
        </mxCell>
        <UserObject label="buffer = (buffer &amp;lt;&amp;lt; code.length) | code.word;&lt;div&gt;bit_count += code.length;&lt;/div&gt;" id="zlNJ5mJG9k1ZYK3fHJ0b-16">
          <mxCell style="rounded=1;whiteSpace=wrap;html=1;absoluteArcSize=1;arcSize=14;strokeWidth=2;strokeColor=default;align=center;verticalAlign=middle;fillColor=default;" vertex="1" parent="WIyWlLk6GJQsqaUBKTNV-1">
            <mxGeometry x="310" y="-140" width="200" height="60" as="geometry" />
          </mxCell>
        </UserObject>
        <mxCell id="zlNJ5mJG9k1ZYK3fHJ0b-34" style="edgeStyle=orthogonalEdgeStyle;rounded=0;orthogonalLoop=1;jettySize=auto;html=1;entryX=0.5;entryY=0;entryDx=0;entryDy=0;" edge="1" parent="WIyWlLk6GJQsqaUBKTNV-1" source="zlNJ5mJG9k1ZYK3fHJ0b-17" target="zlNJ5mJG9k1ZYK3fHJ0b-18">
          <mxGeometry relative="1" as="geometry" />
        </mxCell>
        <mxCell id="zlNJ5mJG9k1ZYK3fHJ0b-44" value="Да" style="edgeLabel;html=1;align=center;verticalAlign=middle;resizable=0;points=[];" vertex="1" connectable="0" parent="zlNJ5mJG9k1ZYK3fHJ0b-34">
          <mxGeometry x="0.5897" y="1" relative="1" as="geometry">
            <mxPoint x="19" as="offset" />
          </mxGeometry>
        </mxCell>
        <mxCell id="zlNJ5mJG9k1ZYK3fHJ0b-37" style="edgeStyle=orthogonalEdgeStyle;rounded=0;orthogonalLoop=1;jettySize=auto;html=1;entryX=0;entryY=0.5;entryDx=0;entryDy=0;" edge="1" parent="WIyWlLk6GJQsqaUBKTNV-1" source="zlNJ5mJG9k1ZYK3fHJ0b-17" target="zlNJ5mJG9k1ZYK3fHJ0b-8">
          <mxGeometry relative="1" as="geometry">
            <Array as="points">
              <mxPoint x="560" y="-25" />
              <mxPoint x="560" y="100" />
              <mxPoint x="200" y="100" />
              <mxPoint x="200" y="-365" />
            </Array>
          </mxGeometry>
        </mxCell>
        <mxCell id="zlNJ5mJG9k1ZYK3fHJ0b-45" value="Нет" style="edgeLabel;html=1;align=center;verticalAlign=middle;resizable=0;points=[];" vertex="1" connectable="0" parent="zlNJ5mJG9k1ZYK3fHJ0b-37">
          <mxGeometry x="-0.962" y="2" relative="1" as="geometry">
            <mxPoint x="-6" y="-15" as="offset" />
          </mxGeometry>
        </mxCell>
        <UserObject label="bit_count &gt;= 8" id="zlNJ5mJG9k1ZYK3fHJ0b-17">
          <mxCell style="strokeWidth=2;html=1;shape=mxgraph.flowchart.decision;whiteSpace=wrap;" vertex="1" parent="WIyWlLk6GJQsqaUBKTNV-1">
            <mxGeometry x="310" y="-50" width="200" height="50" as="geometry" />
          </mxCell>
        </UserObject>
        <UserObject label="bit_count -= 8;&lt;div&gt;result.push_back(buffer &amp;gt;&amp;gt; bit_count);&lt;/div&gt;" id="zlNJ5mJG9k1ZYK3fHJ0b-18">
          <mxCell style="rounded=1;whiteSpace=wrap;html=1;absoluteArcSize=1;arcSize=14;strokeWidth=2;strokeColor=default;align=center;verticalAlign=middle;fillColor=default;" vertex="1" parent="WIyWlLk6GJQsqaUBKTNV-1">
            <mxGeometry x="310" y="20" width="200" height="60" as="geometry" />
          </mxCell>
        </UserObject>
        <mxCell id="zlNJ5mJG9k1ZYK3fHJ0b-39" style="edgeStyle=orthogonalEdgeStyle;rounded=0;orthogonalLoop=1;jettySize=auto;html=1;entryX=0.5;entryY=0;entryDx=0;entryDy=0;" edge="1" parent="WIyWlLk6GJQsqaUBKTNV-1" source="zlNJ5mJG9k1ZYK3fHJ0b-19" target="zlNJ5mJG9k1ZYK3fHJ0b-22">
          <mxGeometry relative="1" as="geometry" />
        </mxCell>
        <mxCell id="zlNJ5mJG9k1ZYK3fHJ0b-46" value="Да" style="edgeLabel;html=1;align=center;verticalAlign=middle;resizable=0;points=[];" vertex="1" connectable="0" parent="zlNJ5mJG9k1ZYK3fHJ0b-39">
          <mxGeometry x="0.6026" relative="1" as="geometry">
            <mxPoint x="23" y="-1" as="offset" />
          </mxGeometry>
        </mxCell>
        <mxCell id="zlNJ5mJG9k1ZYK3fHJ0b-42" style="edgeStyle=orthogonalEdgeStyle;rounded=0;orthogonalLoop=1;jettySize=auto;html=1;exitX=1;exitY=0.5;exitDx=0;exitDy=0;exitPerimeter=0;" edge="1" parent="WIyWlLk6GJQsqaUBKTNV-1" source="zlNJ5mJG9k1ZYK3fHJ0b-19">
          <mxGeometry relative="1" as="geometry">
            <mxPoint x="410" y="280" as="targetPoint" />
            <Array as="points">
              <mxPoint x="560" y="155" />
              <mxPoint x="560" y="280" />
              <mxPoint x="410" y="280" />
            </Array>
          </mxGeometry>
        </mxCell>
        <mxCell id="zlNJ5mJG9k1ZYK3fHJ0b-47" value="Нет" style="edgeLabel;html=1;align=center;verticalAlign=middle;resizable=0;points=[];" vertex="1" connectable="0" parent="zlNJ5mJG9k1ZYK3fHJ0b-42">
          <mxGeometry x="-0.9342" y="-2" relative="1" as="geometry">
            <mxPoint x="5" y="-16" as="offset" />
          </mxGeometry>
        </mxCell>
        <UserObject label="bit_count &gt; 0" id="zlNJ5mJG9k1ZYK3fHJ0b-19">
          <mxCell style="strokeWidth=2;html=1;shape=mxgraph.flowchart.decision;whiteSpace=wrap;" vertex="1" parent="WIyWlLk6GJQsqaUBKTNV-1">
            <mxGeometry x="310" y="130" width="200" height="50" as="geometry" />
          </mxCell>
        </UserObject>
        <UserObject label="result.push_back(buffer &lt;&lt; (8 - bit_count));" id="zlNJ5mJG9k1ZYK3fHJ0b-22">
          <mxCell style="rounded=1;whiteSpace=wrap;html=1;absoluteArcSize=1;arcSize=14;strokeWidth=2;strokeColor=default;align=center;verticalAlign=middle;fillColor=default;" vertex="1" parent="WIyWlLk6GJQsqaUBKTNV-1">
            <mxGeometry x="310" y="200" width="200" height="60" as="geometry" />
          </mxCell>
        </UserObject>
        <mxCell id="zlNJ5mJG9k1ZYK3fHJ0b-23" value="Конец (возврат result&lt;span style=&quot;background-color: initial;&quot;&gt;)&lt;/span&gt;" style="strokeWidth=2;html=1;shape=mxgraph.flowchart.terminator;whiteSpace=wrap;" vertex="1" parent="WIyWlLk6GJQsqaUBKTNV-1">
          <mxGeometry x="360" y="300" width="100" height="60" as="geometry" />
        </mxCell>
        <mxCell id="zlNJ5mJG9k1ZYK3fHJ0b-26" style="edgeStyle=orthogonalEdgeStyle;rounded=0;orthogonalLoop=1;jettySize=auto;html=1;entryX=0.5;entryY=0;entryDx=0;entryDy=0;entryPerimeter=0;" edge="1" parent="WIyWlLk6GJQsqaUBKTNV-1" source="zlNJ5mJG9k1ZYK3fHJ0b-8" target="zlNJ5mJG9k1ZYK3fHJ0b-11">
          <mxGeometry relative="1" as="geometry" />
        </mxCell>
        <mxCell id="zlNJ5mJG9k1ZYK3fHJ0b-28" style="edgeStyle=orthogonalEdgeStyle;rounded=0;orthogonalLoop=1;jettySize=auto;html=1;entryX=0.5;entryY=0;entryDx=0;entryDy=0;entryPerimeter=0;" edge="1" parent="WIyWlLk6GJQsqaUBKTNV-1" source="zlNJ5mJG9k1ZYK3fHJ0b-14" target="zlNJ5mJG9k1ZYK3fHJ0b-12">
          <mxGeometry relative="1" as="geometry" />
        </mxCell>
        <mxCell id="zlNJ5mJG9k1ZYK3fHJ0b-33" style="edgeStyle=orthogonalEdgeStyle;rounded=0;orthogonalLoop=1;jettySize=auto;html=1;entryX=0.5;entryY=0;entryDx=0;entryDy=0;entryPerimeter=0;" edge="1" parent="WIyWlLk6GJQsqaUBKTNV-1" source="zlNJ5mJG9k1ZYK3fHJ0b-16" target="zlNJ5mJG9k1ZYK3fHJ0b-17">
          <mxGeometry relative="1" as="geometry" />
        </mxCell>
        <mxCell id="zlNJ5mJG9k1ZYK3fHJ0b-35" style="edgeStyle=orthogonalEdgeStyle;rounded=0;orthogonalLoop=1;jettySize=auto;html=1;entryX=0;entryY=0.5;entryDx=0;entryDy=0;entryPerimeter=0;" edge="1" parent="WIyWlLk6GJQsqaUBKTNV-1" source="zlNJ5mJG9k1ZYK3fHJ0b-18" target="zlNJ5mJG9k1ZYK3fHJ0b-17">
          <mxGeometry relative="1" as="geometry">
            <Array as="points">
              <mxPoint x="260" y="50" />
              <mxPoint x="260" y="-25" />
            </Array>
          </mxGeometry>
        </mxCell>
        <mxCell id="zlNJ5mJG9k1ZYK3fHJ0b-38" style="edgeStyle=orthogonalEdgeStyle;rounded=0;orthogonalLoop=1;jettySize=auto;html=1;entryX=0.5;entryY=0;entryDx=0;entryDy=0;entryPerimeter=0;" edge="1" parent="WIyWlLk6GJQsqaUBKTNV-1" source="zlNJ5mJG9k1ZYK3fHJ0b-8" target="zlNJ5mJG9k1ZYK3fHJ0b-19">
          <mxGeometry relative="1" as="geometry">
            <Array as="points">
              <mxPoint x="780" y="-365" />
              <mxPoint x="780" y="111" />
              <mxPoint x="410" y="111" />
            </Array>
          </mxGeometry>
        </mxCell>
        <mxCell id="zlNJ5mJG9k1ZYK3fHJ0b-40" style="edgeStyle=orthogonalEdgeStyle;rounded=0;orthogonalLoop=1;jettySize=auto;html=1;entryX=0.5;entryY=0;entryDx=0;entryDy=0;entryPerimeter=0;" edge="1" parent="WIyWlLk6GJQsqaUBKTNV-1" source="zlNJ5mJG9k1ZYK3fHJ0b-22" target="zlNJ5mJG9k1ZYK3fHJ0b-23">
          <mxGeometry relative="1" as="geometry" />
        </mxCell>
      </root>
    </mxGraphModel>
  </diagram>
</mxfile>
